<svg width="30" height="30" xmlns="http://www.w3.org/2000/svg" xmlns:xlink="http://www.w3.org/1999/xlink">
 <metadata id="metadata2999">image/svg+xml</metadata>

 <g>
  <title>background</title>
  <rect fill="none" id="canvas_background" height="32" width="32" y="-1" x="-1"/>
 </g>
 <g>
  <title>Layer 1</title>
  <ellipse stroke="#000" ry="14.193302" rx="14.193302" id="svg_1" cy="15" cx="15" fill="none"/>
  <g transform="matrix(0.010131382145231939,0,0,-0.010131382145231939,73.42602923783018,391.16238184995603) " id="g2991">
   <path fill="currentColor" id="path2993" d="m-5958.837181,36552.43527q0,-53 -37.5,-90.5q-37.5,-37.5 -90.5,-37.5q-53,0 -90.5,37.5q-37.5,37.5 -37.5,90.5q0,53 37.5,90.5q37.5,37.5 90.5,37.5q53,0 90.5,-37.5q37.5,-37.5 37.5,-90.5zm896,0q0,-53 -37.5,-90.5q-37.5,-37.5 -90.5,-37.5q-53,0 -90.5,37.5q-37.5,37.5 -37.5,90.5q0,53 37.5,90.5q37.5,37.5 90.5,37.5q53,0 90.5,-37.5q37.5,-37.5 37.5,-90.5zm128,1088l0,-512q0,-24 -16,-42.5q-16,-18.5 -41,-21.5l-1044,-122q1,-7 4.5,-21.5q3.5,-14.5 6,-26.5q2.5,-12 2.5,-22q0,-16 -24,-64l920,0q26,0 45,-19q19,-19 19,-45q0,-26 -19,-45q-19,-19 -45,-19l-1024,0q-26,0 -45,19q-19,19 -19,45q0,14 11,39.5q11,25.5 29.5,59.5q18.5,34 20.5,38l-177,823l-204,0q-26,0 -45,19q-19,19 -19,45q0,26 19,45q19,19 45,19l256,0q16,0 28.5,-6.5q12.5,-6.5 20,-15.5q7.5,-9 13,-24.5q5.5,-15.5 7.5,-26.5q2,-11 5.5,-29.5q3.5,-18.5 4.5,-25.5l1201,0q26,0 45,-19q19,-19 19,-45z"/>
  </g>
  <defs>
   <circle r="15" cy="15" cx="15" id="svg_17"/>
   <mask height="30" width="30" y="0" x="0" maskUnits="objectBoundingBox" maskContentUnits="userSpaceOnUse" id="svg_16">
    <use id="svg_19" xlink:href="#svg_17"/>
   </mask>
  </defs>
 </g>
</svg>