<?xml version="1.0" encoding="UTF-8" standalone="no"?>
<svg width="30px" height="30px" viewBox="0 0 30 30" version="1.1" xmlns="http://www.w3.org/2000/svg" xmlns:xlink="http://www.w3.org/1999/xlink">
    <!-- Generator: Sketch 41 (35326) - http://www.bohemiancoding.com/sketch -->
    <title>Sale Icon</title>
    <desc>Created with Sketch.</desc>
    <defs></defs>
    <g id="Social-Icons" stroke="none" stroke-width="1" fill="none" fill-rule="evenodd">
        <g id="Artboard-Copy">
            <g id="Sale-Icon">
                <circle id="Oval-Copy" fill="#292929" cx="15" cy="15" r="15"></circle>
                <path d="M12.138,13.678 C12.1179999,13.7100002 12.0970001,13.7339999 12.075,13.75 C12.0529999,13.7660001 12.0246668,13.774 11.99,13.774 C11.9593332,13.774 11.9263335,13.7643334 11.891,13.745 C11.8556665,13.7256666 11.8156669,13.7040001 11.771,13.68 C11.7263331,13.6559999 11.6753336,13.6343334 11.618,13.615 C11.5606664,13.5956666 11.4953337,13.586 11.422,13.586 C11.2953327,13.586 11.2010003,13.6129997 11.139,13.667 C11.0769997,13.7210003 11.046,13.7939995 11.046,13.886 C11.046,13.944667 11.0646665,13.9933331 11.102,14.032 C11.1393335,14.0706669 11.188333,14.1039999 11.249,14.132 C11.309667,14.1600001 11.3789996,14.1856666 11.457,14.209 C11.5350004,14.2323334 11.6146663,14.2583332 11.696,14.287 C11.7773337,14.3156668 11.8569996,14.3493331 11.935,14.388 C12.0130004,14.4266669 12.082333,14.4759997 12.143,14.536 C12.203667,14.5960003 12.2526665,14.6689996 12.29,14.755 C12.3273335,14.8410004 12.346,14.9446661 12.346,15.066 C12.346,15.2006673 12.3226669,15.3266661 12.276,15.444 C12.2293331,15.5613339 12.1616671,15.6636662 12.073,15.751 C11.9843329,15.8383338 11.8750007,15.9069998 11.745,15.957 C11.6149994,16.0070003 11.4673342,16.032 11.302,16.032 C11.2113329,16.032 11.1190005,16.0226668 11.025,16.004 C10.9309995,15.9853332 10.8400004,15.9590002 10.752,15.925 C10.6639996,15.8909998 10.5813337,15.8506669 10.504,15.804 C10.4266663,15.7573331 10.3593336,15.7053336 10.302,15.648 L10.502,15.332 C10.5166667,15.3079999 10.5373332,15.2886667 10.564,15.274 C10.5906668,15.2593333 10.6193332,15.252 10.65,15.252 C10.6900002,15.252 10.7303331,15.2646665 10.771,15.29 C10.8116669,15.3153335 10.8576664,15.3433332 10.909,15.374 C10.9603336,15.4046668 11.019333,15.4326665 11.086,15.458 C11.152667,15.4833335 11.2313329,15.496 11.322,15.496 C11.4446673,15.496 11.5399997,15.4690003 11.608,15.415 C11.6760003,15.3609997 11.71,15.2753339 11.71,15.158 C11.71,15.0899997 11.6913335,15.0346669 11.654,14.992 C11.6166665,14.9493331 11.567667,14.9140001 11.507,14.886 C11.446333,14.8579999 11.3773337,14.8333334 11.3,14.812 C11.2226663,14.7906666 11.1433337,14.7670001 11.062,14.741 C10.9806663,14.7149999 10.9013337,14.6830002 10.824,14.645 C10.7466663,14.6069998 10.677667,14.5570003 10.617,14.495 C10.556333,14.4329997 10.5073335,14.3556671 10.47,14.263 C10.4326665,14.1703329 10.414,14.0560007 10.414,13.92 C10.414,13.8106661 10.4359998,13.7040005 10.48,13.6 C10.5240002,13.4959995 10.5886662,13.4033337 10.674,13.322 C10.7593338,13.2406663 10.8639994,13.1756669 10.988,13.127 C11.1120006,13.0783331 11.2539992,13.054 11.414,13.054 C11.5033338,13.054 11.5903329,13.0609999 11.675,13.075 C11.7596671,13.0890001 11.8399996,13.1096665 11.916,13.137 C11.9920004,13.1643335 12.0629997,13.1969998 12.129,13.235 C12.1950003,13.2730002 12.2539997,13.3159998 12.306,13.364 L12.138,13.678 Z M15.394,16 L14.87,16 C14.811333,16 14.7630002,15.9863335 14.725,15.959 C14.6869998,15.9316665 14.6606667,15.8966669 14.646,15.854 L14.474,15.346 L13.366,15.346 L13.194,15.854 C13.1806666,15.8913335 13.1546669,15.9249998 13.116,15.955 C13.0773331,15.9850002 13.0300003,16 12.974,16 L12.446,16 L13.574,13.086 L14.266,13.086 L15.394,16 Z M13.522,14.886 L14.318,14.886 L14.05,14.088 C14.0326666,14.0373331 14.0123335,13.977667 13.989,13.909 C13.9656666,13.840333 13.9426668,13.7660004 13.92,13.686 C13.8986666,13.7673337 13.8766668,13.8426663 13.854,13.912 C13.8313332,13.9813337 13.8100001,14.0413331 13.79,14.092 L13.522,14.886 Z M16.306,15.46 L17.386,15.46 L17.386,16 L15.63,16 L15.63,13.086 L16.306,13.086 L16.306,15.46 Z M19.582,13.086 L19.582,13.606 L18.386,13.606 L18.386,14.286 L19.302,14.286 L19.302,14.786 L18.386,14.786 L18.386,15.48 L19.582,15.48 L19.582,16 L17.706,16 L17.706,13.086 L19.582,13.086 Z" id="SALE" fill="#FFFFFF"></path>
            </g>
        </g>
    </g>
</svg>