<?xml version="1.0" encoding="UTF-8" standalone="no"?>
<svg width="30px" height="30px" viewBox="0 0 30 30" version="1.1" xmlns="http://www.w3.org/2000/svg" xmlns:xlink="http://www.w3.org/1999/xlink">
    <!-- Generator: Sketch 41 (35326) - http://www.bohemiancoding.com/sketch -->
    <title>Sold Out Icon</title>
    <desc>Created with Sketch.</desc>
    <defs></defs>
    <g id="Social-Icons" stroke="none" stroke-width="1" fill="none" fill-rule="evenodd">
        <g id="Artboard-Copy">
            <g id="Sold-Out-Icon">
                <circle id="Oval" fill="#292929" cx="15" cy="15" r="15"></circle>
                <path d="M7.022,13.678 C7.0019999,13.7100002 6.98100011,13.7339999 6.959,13.75 C6.93699989,13.7660001 6.90866684,13.774 6.874,13.774 C6.84333318,13.774 6.81033351,13.7643334 6.775,13.745 C6.73966649,13.7256666 6.69966689,13.7040001 6.655,13.68 C6.61033311,13.6559999 6.55933362,13.6343334 6.502,13.615 C6.44466638,13.5956666 6.3793337,13.586 6.306,13.586 C6.1793327,13.586 6.08500031,13.6129997 6.023,13.667 C5.96099969,13.7210003 5.93,13.7939995 5.93,13.886 C5.93,13.944667 5.94866648,13.9933331 5.986,14.032 C6.02333352,14.0706669 6.07233303,14.1039999 6.133,14.132 C6.19366697,14.1600001 6.26299961,14.1856666 6.341,14.209 C6.41900039,14.2323334 6.49866626,14.2583332 6.58,14.287 C6.66133374,14.3156668 6.74099961,14.3493331 6.819,14.388 C6.89700039,14.4266669 6.96633303,14.4759997 7.027,14.536 C7.08766697,14.5960003 7.13666648,14.6689996 7.174,14.755 C7.21133352,14.8410004 7.23,14.9446661 7.23,15.066 C7.23,15.2006673 7.2066669,15.3266661 7.16,15.444 C7.1133331,15.5613339 7.04566711,15.6636662 6.957,15.751 C6.86833289,15.8383338 6.75900065,15.9069998 6.629,15.957 C6.49899935,16.0070003 6.35133416,16.032 6.186,16.032 C6.09533288,16.032 6.00300047,16.0226668 5.909,16.004 C5.81499953,15.9853332 5.72400044,15.9590002 5.636,15.925 C5.54799956,15.8909998 5.46533372,15.8506669 5.388,15.804 C5.31066628,15.7573331 5.24333362,15.7053336 5.186,15.648 L5.386,15.332 C5.40066674,15.3079999 5.4213332,15.2886667 5.448,15.274 C5.4746668,15.2593333 5.50333318,15.252 5.534,15.252 C5.5740002,15.252 5.61433313,15.2646665 5.655,15.29 C5.69566687,15.3153335 5.74166641,15.3433332 5.793,15.374 C5.84433359,15.4046668 5.903333,15.4326665 5.97,15.458 C6.036667,15.4833335 6.11533288,15.496 6.206,15.496 C6.32866728,15.496 6.42399966,15.4690003 6.492,15.415 C6.56000034,15.3609997 6.594,15.2753339 6.594,15.158 C6.594,15.0899997 6.57533352,15.0346669 6.538,14.992 C6.50066648,14.9493331 6.45166697,14.9140001 6.391,14.886 C6.33033303,14.8579999 6.26133372,14.8333334 6.184,14.812 C6.10666628,14.7906666 6.02733374,14.7670001 5.946,14.741 C5.86466626,14.7149999 5.78533372,14.6830002 5.708,14.645 C5.63066628,14.6069998 5.56166697,14.5570003 5.501,14.495 C5.44033303,14.4329997 5.39133352,14.3556671 5.354,14.263 C5.31666648,14.1703329 5.298,14.0560007 5.298,13.92 C5.298,13.8106661 5.31999978,13.7040005 5.364,13.6 C5.40800022,13.4959995 5.47266624,13.4033337 5.558,13.322 C5.64333376,13.2406663 5.74799938,13.1756669 5.872,13.127 C5.99600062,13.0783331 6.1379992,13.054 6.298,13.054 C6.38733378,13.054 6.47433291,13.0609999 6.559,13.075 C6.64366709,13.0890001 6.72399962,13.1096665 6.8,13.137 C6.87600038,13.1643335 6.94699967,13.1969998 7.013,13.235 C7.07900033,13.2730002 7.13799974,13.3159998 7.19,13.364 L7.022,13.678 Z M10.442,14.542 C10.442,14.7526677 10.405667,14.9486658 10.333,15.13 C10.260333,15.3113342 10.1580007,15.4689993 10.026,15.603 C9.89399934,15.7370007 9.73500093,15.8419996 9.549,15.918 C9.36299907,15.9940004 9.1566678,16.032 8.93,16.032 C8.7033322,16.032 8.4966676,15.9940004 8.31,15.918 C8.1233324,15.8419996 7.96366733,15.7370007 7.831,15.603 C7.69833267,15.4689993 7.59566703,15.3113342 7.523,15.13 C7.45033297,14.9486658 7.414,14.7526677 7.414,14.542 C7.414,14.3313323 7.45033297,14.1353342 7.523,13.954 C7.59566703,13.7726658 7.69833267,13.615334 7.831,13.482 C7.96366733,13.348666 8.1233324,13.2440004 8.31,13.168 C8.4966676,13.0919996 8.7033322,13.054 8.93,13.054 C9.1566678,13.054 9.36299907,13.0923329 9.549,13.169 C9.73500093,13.245667 9.89399934,13.350666 10.026,13.484 C10.1580007,13.617334 10.260333,13.7746658 10.333,13.956 C10.405667,14.1373342 10.442,14.3326656 10.442,14.542 Z M9.75,14.542 C9.75,14.3979993 9.73133352,14.2683339 9.694,14.153 C9.65666648,14.0376661 9.60300035,13.9400004 9.533,13.86 C9.46299965,13.7799996 9.37733384,13.7186669 9.276,13.676 C9.17466616,13.6333331 9.05933398,13.612 8.93,13.612 C8.79933268,13.612 8.68300051,13.6333331 8.581,13.676 C8.47899949,13.7186669 8.39300035,13.7799996 8.323,13.86 C8.25299965,13.9400004 8.19933352,14.0376661 8.162,14.153 C8.12466648,14.2683339 8.106,14.3979993 8.106,14.542 C8.106,14.6873341 8.12466648,14.8176661 8.162,14.933 C8.19933352,15.0483339 8.25299965,15.1459996 8.323,15.226 C8.39300035,15.3060004 8.47899949,15.3669998 8.581,15.409 C8.68300051,15.4510002 8.79933268,15.472 8.93,15.472 C9.05933398,15.472 9.17466616,15.4510002 9.276,15.409 C9.37733384,15.3669998 9.46299965,15.3060004 9.533,15.226 C9.60300035,15.1459996 9.65666648,15.0483339 9.694,14.933 C9.73133352,14.8176661 9.75,14.6873341 9.75,14.542 Z M11.442,15.46 L12.522,15.46 L12.522,16 L10.766,16 L10.766,13.086 L11.442,13.086 L11.442,15.46 Z M15.486,14.542 C15.486,14.7526677 15.449667,14.9469991 15.377,15.125 C15.304333,15.3030009 15.2020007,15.4569994 15.07,15.587 C14.9379993,15.7170006 14.7790009,15.818333 14.593,15.891 C14.4069991,15.963667 14.2006678,16 13.974,16 L12.842,16 L12.842,13.086 L13.974,13.086 C14.2006678,13.086 14.4069991,13.1226663 14.593,13.196 C14.7790009,13.2693337 14.9379993,13.370666 15.07,13.5 C15.2020007,13.629334 15.304333,13.7829991 15.377,13.961 C15.449667,14.1390009 15.486,14.3326656 15.486,14.542 Z M14.794,14.542 C14.794,14.3979993 14.7753335,14.2680006 14.738,14.152 C14.7006665,14.0359994 14.6470004,13.9376671 14.577,13.857 C14.5069997,13.7763329 14.4213338,13.7143335 14.32,13.671 C14.2186662,13.6276664 14.103334,13.606 13.974,13.606 L13.522,13.606 L13.522,15.48 L13.974,15.48 C14.103334,15.48 14.2186662,15.4583335 14.32,15.415 C14.4213338,15.3716664 14.5069997,15.3096671 14.577,15.229 C14.6470004,15.1483329 14.7006665,15.0500006 14.738,14.934 C14.7753335,14.8179994 14.794,14.6873341 14.794,14.542 Z M19.458,14.542 C19.458,14.7526677 19.421667,14.9486658 19.349,15.13 C19.276333,15.3113342 19.1740007,15.4689993 19.042,15.603 C18.9099993,15.7370007 18.7510009,15.8419996 18.565,15.918 C18.3789991,15.9940004 18.1726678,16.032 17.946,16.032 C17.7193322,16.032 17.5126676,15.9940004 17.326,15.918 C17.1393324,15.8419996 16.9796673,15.7370007 16.847,15.603 C16.7143327,15.4689993 16.611667,15.3113342 16.539,15.13 C16.466333,14.9486658 16.43,14.7526677 16.43,14.542 C16.43,14.3313323 16.466333,14.1353342 16.539,13.954 C16.611667,13.7726658 16.7143327,13.615334 16.847,13.482 C16.9796673,13.348666 17.1393324,13.2440004 17.326,13.168 C17.5126676,13.0919996 17.7193322,13.054 17.946,13.054 C18.1726678,13.054 18.3789991,13.0923329 18.565,13.169 C18.7510009,13.245667 18.9099993,13.350666 19.042,13.484 C19.1740007,13.617334 19.276333,13.7746658 19.349,13.956 C19.421667,14.1373342 19.458,14.3326656 19.458,14.542 Z M18.766,14.542 C18.766,14.3979993 18.7473335,14.2683339 18.71,14.153 C18.6726665,14.0376661 18.6190004,13.9400004 18.549,13.86 C18.4789997,13.7799996 18.3933338,13.7186669 18.292,13.676 C18.1906662,13.6333331 18.075334,13.612 17.946,13.612 C17.8153327,13.612 17.6990005,13.6333331 17.597,13.676 C17.4949995,13.7186669 17.4090004,13.7799996 17.339,13.86 C17.2689997,13.9400004 17.2153335,14.0376661 17.178,14.153 C17.1406665,14.2683339 17.122,14.3979993 17.122,14.542 C17.122,14.6873341 17.1406665,14.8176661 17.178,14.933 C17.2153335,15.0483339 17.2689997,15.1459996 17.339,15.226 C17.4090004,15.3060004 17.4949995,15.3669998 17.597,15.409 C17.6990005,15.4510002 17.8153327,15.472 17.946,15.472 C18.075334,15.472 18.1906662,15.4510002 18.292,15.409 C18.3933338,15.3669998 18.4789997,15.3060004 18.549,15.226 C18.6190004,15.1459996 18.6726665,15.0483339 18.71,14.933 C18.7473335,14.8176661 18.766,14.6873341 18.766,14.542 Z M20.994,15.466 C21.0846671,15.466 21.1656663,15.4510002 21.237,15.421 C21.3083337,15.3909999 21.3686664,15.3480003 21.418,15.292 C21.4673336,15.2359997 21.5049999,15.1676671 21.531,15.087 C21.5570001,15.0063329 21.57,14.9146672 21.57,14.812 L21.57,13.086 L22.246,13.086 L22.246,14.812 C22.246,14.9906676 22.2170003,15.1546659 22.159,15.304 C22.1009997,15.4533341 22.0180005,15.5819995 21.91,15.69 C21.8019995,15.7980005 21.6706674,15.8819997 21.516,15.942 C21.3613326,16.0020003 21.1873343,16.032 20.994,16.032 C20.7993324,16.032 20.6246674,16.0020003 20.47,15.942 C20.3153326,15.8819997 20.1840005,15.7980005 20.076,15.69 C19.9679995,15.5819995 19.8853336,15.4533341 19.828,15.304 C19.7706664,15.1546659 19.742,14.9906676 19.742,14.812 L19.742,13.086 L20.418,13.086 L20.418,14.81 C20.418,14.9126672 20.4309999,15.0043329 20.457,15.085 C20.4830001,15.1656671 20.5206664,15.2343331 20.57,15.291 C20.6193336,15.347667 20.6796663,15.3909999 20.751,15.421 C20.8223337,15.4510002 20.9033329,15.466 20.994,15.466 Z M24.802,13.086 L24.802,13.622 L23.982,13.622 L23.982,16 L23.306,16 L23.306,13.622 L22.486,13.622 L22.486,13.086 L24.802,13.086 Z" id="SOLD-OUT" fill="#FFFFFF"></path>
            </g>
        </g>
    </g>
</svg>