<?xml version="1.0" encoding="UTF-8" standalone="no"?>
<svg width="100px" height="100px" viewBox="0 0 100 100" version="1.1" xmlns="http://www.w3.org/2000/svg" xmlns:xlink="http://www.w3.org/1999/xlink">
    <!-- Generator: Sketch 41 (35326) - http://www.bohemiancoding.com/sketch -->
    <title>search-icon</title>
    <desc>Created with Sketch.</desc>
    <defs></defs>
    <g id="Social-Icons" stroke="none" stroke-width="1" fill="none" fill-rule="evenodd">
        <g id="Artboard" fill="#000000">
            <g id="search-icon">
                <path d="M70.9633025,66.2949118 L62.1167752,57.4487458 C64.248708,54.3711744 65.3152164,50.9402983 65.3152164,47.1579244 C65.3152164,44.6991555 64.8378803,42.3476155 63.883208,40.1038466 C62.9291681,37.8597164 61.6394391,35.9254391 60.014563,34.300563 C58.389687,32.675687 56.4556807,31.385958 54.2120021,30.4318277 C51.9676008,29.4774265 49.6162416,29.000271 47.1574727,29.000271 C44.6988845,29.000271 42.3473445,29.4774265 40.1035756,30.4318277 C37.8594454,31.385958 35.9251681,32.675687 34.300292,34.300563 C32.6752353,35.9254391 31.385687,37.8600777 30.4314664,40.1038466 C29.4771555,42.3478866 29,44.6991555 29,47.1579244 C29,49.6165126 29.4771555,51.9672395 30.4314664,54.2116408 C31.3855966,56.4554097 32.6752353,58.389416 34.300292,60.014292 C35.9251681,61.6397101 37.8598067,62.9288971 40.1035756,63.8835693 C42.3476155,64.8377899 44.6988845,65.314855 47.1574727,65.314855 C50.9406597,65.314855 54.3709937,64.2482563 57.4487458,62.1165042 L66.2952731,70.9370147 C66.9142563,71.5902353 67.6869916,71.9170714 68.6162794,71.9170714 C69.5103361,71.9170714 70.2845168,71.5903256 70.9373761,70.9370147 C71.5905063,70.2838845 71.9173424,69.5100651 71.9173424,68.6160084 C71.9176134,67.7052395 71.5995399,66.9311492 70.9633025,66.2949118 Z M55.3206071,55.3201555 C53.059584,57.5815399 50.33875,58.712187 47.1574727,58.712187 C43.9767374,58.712187 41.2559034,57.5812689 38.9946996,55.3201555 C36.7334958,53.0591324 35.6029391,50.3386597 35.6029391,47.1573824 C35.6029391,43.9766471 36.7337668,41.2553613 38.9946996,38.9946092 C41.2554517,36.7333151 43.9767374,35.6028487 47.1574727,35.6028487 C50.3383887,35.6028487 53.0592227,36.7337668 55.3206071,38.9946092 C57.5819916,41.2553613 58.7125483,43.9766471 58.7125483,47.1573824 C58.7125483,50.3386597 57.5816303,53.0591324 55.3206071,55.3201555 Z" id="Shape"></path>
                <path d="M50,100 C77.6142375,100 100,77.6142375 100,50 C100,22.3857625 77.6142375,0 50,0 C22.3857625,0 0,22.3857625 0,50 C0,77.6142375 22.3857625,100 50,100 Z M50,96 C24.5949015,96 4,75.4050985 4,50 C4,24.5949015 24.5949015,4 50,4 C75.4050985,4 96,24.5949015 96,50 C96,75.4050985 75.4050985,96 50,96 Z" id="Oval-2-Copy-6"></path>
            </g>
        </g>
    </g>
</svg>